<?xml version="1.0" encoding="UTF-8"?><svg id="Calque_2" xmlns="http://www.w3.org/2000/svg" xmlns:xlink="http://www.w3.org/1999/xlink" viewBox="0 0 247.65 247.65"><defs><style>.cls-1{fill:url(#linear-gradient-2);}.cls-2{fill:#4b0000;}.cls-3{fill:url(#linear-gradient);}.cls-4{fill:red;}</style><linearGradient id="linear-gradient" x1="36.27" y1="36.27" x2="211.38" y2="211.38" gradientUnits="userSpaceOnUse"><stop offset="0" stop-color="#f00000"/><stop offset=".53" stop-color="#ec0000"/><stop offset=".95" stop-color="#e20000"/><stop offset="1" stop-color="#e10000"/></linearGradient><linearGradient id="linear-gradient-2" x1="209.87" y1="209.87" x2="37.78" y2="37.78" xlink:href="#linear-gradient"/></defs><g id="Ebene_1"><g><path class="cls-3" d="M247.65,123.82c0,68.39-55.44,123.83-123.83,123.83S0,192.21,0,123.82,55.44,0,123.82,0s123.83,55.44,123.83,123.82Z"/><path class="cls-1" d="M245.5,123.82c0,67.21-54.48,121.68-121.68,121.68S2.15,191.03,2.15,123.82,56.62,2.15,123.82,2.15s121.68,54.48,121.68,121.68Z"/><path class="cls-4" d="M232.64,123.82c0,60.1-48.72,108.82-108.82,108.82S15.01,183.93,15.01,123.82,63.73,15.01,123.82,15.01s108.82,48.71,108.82,108.81Z"/><g><path class="cls-2" d="M103.9,95.25c0,11.01-3.76,19.93-8.39,19.93s-8.39-8.92-8.39-19.93,3.76-19.93,8.39-19.93,8.39,8.92,8.39,19.93Z"/><path class="cls-2" d="M160.54,95.25c0,11.01-3.76,19.93-8.39,19.93s-8.39-8.92-8.39-19.93,3.75-19.93,8.39-19.93,8.39,8.92,8.39,19.93Z"/></g><path class="cls-2" d="M59.46,172.59c-1.7-1.47-1.89-4.05-.41-5.76h0c14.77-17.04,38.33-27.91,64.77-27.91h0c26.45,0,50,10.87,64.78,27.91h0c1.47,1.7,1.29,4.28-.41,5.76h0c-1.7,1.48-4.28,1.29-5.75-.41h0c-13.06-15.09-34.4-25.1-58.61-25.09h0c-24.21,0-45.54,10-58.6,25.09h0c-.81,.93-1.94,1.41-3.09,1.41h0c-.95,0-1.9-.33-2.67-1h0Z"/></g></g></svg>