<?xml version="1.0" encoding="UTF-8"?><svg id="Calque_2" xmlns="http://www.w3.org/2000/svg" xmlns:xlink="http://www.w3.org/1999/xlink" viewBox="0 0 247.65 247.65"><defs><style>.cls-1{fill:url(#linear-gradient-2);}.cls-2{fill:#91d700;}.cls-3{fill:#003200;}.cls-4{fill:url(#linear-gradient);}</style><linearGradient id="linear-gradient" x1="36.27" y1="36.27" x2="211.38" y2="211.38" gradientUnits="userSpaceOnUse"><stop offset="0" stop-color="#87cd00"/><stop offset=".62" stop-color="#83c900"/><stop offset="1" stop-color="#7dc300"/></linearGradient><linearGradient id="linear-gradient-2" x1="209.86" y1="209.86" x2="37.78" y2="37.78" xlink:href="#linear-gradient"/></defs><g id="Ebene_1"><g><path class="cls-4" d="M247.65,123.82c0,68.39-55.44,123.82-123.83,123.82S0,192.21,0,123.82,55.44,0,123.82,0s123.83,55.44,123.83,123.82Z"/><path class="cls-1" d="M245.5,123.82c0,67.2-54.47,121.68-121.68,121.68S2.14,191.02,2.14,123.82,56.62,2.15,123.82,2.15s121.68,54.48,121.68,121.67Z"/><path class="cls-2" d="M232.64,123.82c0,60.1-48.71,108.82-108.82,108.82S15.01,183.92,15.01,123.82,63.73,15.01,123.82,15.01s108.82,48.72,108.82,108.81Z"/><g><path class="cls-3" d="M103.89,95.25c0,11.01-3.76,19.93-8.39,19.93s-8.39-8.92-8.39-19.93,3.76-19.93,8.39-19.93,8.39,8.92,8.39,19.93Z"/><path class="cls-3" d="M160.54,95.25c0,11.01-3.76,19.93-8.39,19.93s-8.39-8.92-8.39-19.93,3.76-19.93,8.39-19.93,8.39,8.92,8.39,19.93Z"/></g><path class="cls-3" d="M56.48,142.93c-1.07-1.98-.33-4.46,1.66-5.53h0c1.98-1.07,4.46-.33,5.53,1.66h0c11.54,21.4,34.14,35.95,60.16,35.94h0c26.02,0,48.62-14.54,60.16-35.94h0c1.07-1.98,3.54-2.73,5.53-1.66h0c1.98,1.07,2.72,3.54,1.66,5.53h0c-12.9,23.95-38.23,40.23-67.34,40.23h0c-29.12,0-54.44-16.29-67.34-40.23h0Z"/></g></g></svg>