<?xml version="1.0" encoding="UTF-8"?><svg id="Calque_2" xmlns="http://www.w3.org/2000/svg" xmlns:xlink="http://www.w3.org/1999/xlink" viewBox="0 0 247.65 247.65"><defs><style>.cls-1{fill:url(#linear-gradient-2);}.cls-2{fill:#4b0000;}.cls-3{fill:url(#linear-gradient);}.cls-4{fill:#ffa200;}</style><linearGradient id="linear-gradient" x1="36.27" y1="36.27" x2="211.38" y2="211.38" gradientUnits="userSpaceOnUse"><stop offset="0" stop-color="#ff9600"/><stop offset=".62" stop-color="#fb9200"/><stop offset="1" stop-color="#f58c00"/></linearGradient><linearGradient id="linear-gradient-2" x1="209.87" y1="209.87" x2="37.78" y2="37.78" xlink:href="#linear-gradient"/></defs><g id="Ebene_1"><g><path class="cls-3" d="M247.65,123.82c0,68.39-55.44,123.83-123.83,123.83S0,192.21,0,123.82,55.44,0,123.83,0s123.83,55.43,123.83,123.82Z"/><path class="cls-1" d="M245.51,123.82c0,67.21-54.48,121.68-121.68,121.68S2.15,191.03,2.15,123.82,56.62,2.14,123.83,2.14s121.68,54.48,121.68,121.68Z"/><path class="cls-4" d="M232.64,123.82c0,60.1-48.72,108.82-108.82,108.82S15.01,183.92,15.01,123.82,63.73,15.01,123.83,15.01s108.82,48.71,108.82,108.81Z"/><g><path class="cls-2" d="M103.9,95.25c0,11.01-3.76,19.93-8.39,19.93s-8.39-8.92-8.39-19.93,3.76-19.93,8.39-19.93,8.39,8.92,8.39,19.93Z"/><path class="cls-2" d="M160.54,95.25c0,11.01-3.76,19.93-8.39,19.93s-8.39-8.92-8.39-19.93,3.76-19.93,8.39-19.93,8.39,8.92,8.39,19.93Z"/></g><path class="cls-2" d="M185.51,166.96c-.69,0-1.4-.18-2.04-.55-13.78-7.96-36.08-12.71-59.65-12.71s-45.87,4.75-59.65,12.71c-1.95,1.13-4.45,.46-5.58-1.49-1.13-1.95-.46-4.45,1.49-5.58,15.19-8.78,38.42-13.81,63.73-13.81s48.54,5.04,63.73,13.81c1.95,1.13,2.62,3.62,1.49,5.58-.76,1.31-2.13,2.04-3.54,2.04Z"/></g></g></svg>