<?xml version="1.0" encoding="UTF-8"?><svg id="Calque_2" xmlns="http://www.w3.org/2000/svg" xmlns:xlink="http://www.w3.org/1999/xlink" viewBox="0 0 247.65 247.65"><defs><style>.cls-1{fill:url(#linear-gradient-2);}.cls-2{fill:#cdd700;}.cls-3{fill:#192d00;}.cls-4{fill:url(#linear-gradient);}</style><linearGradient id="linear-gradient" x1="36.27" y1="36.27" x2="211.38" y2="211.38" gradientUnits="userSpaceOnUse"><stop offset="0" stop-color="#c3cd00"/><stop offset=".62" stop-color="#bfc900"/><stop offset="1" stop-color="#b9c300"/></linearGradient><linearGradient id="linear-gradient-2" x1="209.87" y1="209.87" x2="37.78" y2="37.78" xlink:href="#linear-gradient"/></defs><g id="Ebene_1"><g><path class="cls-4" d="M247.65,123.82c0,68.39-55.44,123.83-123.83,123.83S0,192.21,0,123.82,55.44,0,123.83,0s123.83,55.43,123.83,123.82Z"/><path class="cls-1" d="M245.51,123.82c0,67.21-54.48,121.68-121.68,121.68S2.15,191.03,2.15,123.82,56.62,2.14,123.83,2.14s121.68,54.48,121.68,121.68Z"/><path class="cls-2" d="M232.64,123.82c0,60.1-48.72,108.82-108.82,108.82S15.01,183.92,15.01,123.82,63.73,15.01,123.83,15.01s108.82,48.71,108.82,108.81Z"/><g><path class="cls-3" d="M103.9,95.25c0,11.01-3.76,19.93-8.39,19.93s-8.39-8.92-8.39-19.93,3.76-19.93,8.39-19.93,8.39,8.92,8.39,19.93Z"/><path class="cls-3" d="M160.54,95.25c0,11.01-3.76,19.93-8.39,19.93s-8.39-8.92-8.39-19.93,3.76-19.93,8.39-19.93,8.39,8.92,8.39,19.93Z"/></g><path class="cls-3" d="M123.83,173.65c-27.65,0-53.14-7.71-66.53-20.13-1.65-1.53-1.75-4.12-.22-5.77,1.53-1.65,4.12-1.75,5.77-.21,11.94,11.08,35.3,17.96,60.97,17.96s49.04-6.88,60.97-17.96c1.65-1.53,4.23-1.44,5.77,.21,1.53,1.65,1.44,4.23-.22,5.77-13.39,12.42-38.88,20.13-66.53,20.13Z"/></g></g></svg>