<?xml version="1.0" encoding="UTF-8"?><svg id="Calque_2" xmlns="http://www.w3.org/2000/svg" xmlns:xlink="http://www.w3.org/1999/xlink" viewBox="0 0 247.65 247.65"><defs><style>.cls-1{fill:url(#linear-gradient-2);}.cls-2{fill:#553400;}.cls-3{fill:#ffe300;}.cls-4{fill:url(#linear-gradient);}</style><linearGradient id="linear-gradient" x1="36.27" y1="36.27" x2="211.38" y2="211.38" gradientUnits="userSpaceOnUse"><stop offset="0" stop-color="#ffd900"/><stop offset=".62" stop-color="#fdd500"/><stop offset="1" stop-color="#facf00"/></linearGradient><linearGradient id="linear-gradient-2" x1="209.87" y1="209.86" x2="37.78" y2="37.78" xlink:href="#linear-gradient"/></defs><g id="Ebene_1"><g><path class="cls-4" d="M247.65,123.82c0,68.39-55.44,123.83-123.82,123.83S0,192.21,0,123.82,55.44,0,123.82,0s123.82,55.43,123.82,123.82Z"/><path class="cls-1" d="M245.5,123.82c0,67.21-54.48,121.68-121.68,121.68S2.15,191.03,2.15,123.82,56.62,2.14,123.82,2.14s121.68,54.48,121.68,121.68Z"/><path class="cls-3" d="M232.64,123.82c0,60.1-48.72,108.82-108.82,108.82S15.01,183.92,15.01,123.82,63.73,15.01,123.82,15.01s108.82,48.71,108.82,108.81Z"/><path class="cls-2" d="M68.3,164.13c-2.25,0-4.08-1.82-4.08-4.08h0c0-2.25,1.83-4.08,4.08-4.08h111.04c2.25,0,4.08,1.83,4.08,4.08h0c0,2.26-1.83,4.08-4.08,4.08H68.3Z"/><g><path class="cls-2" d="M103.9,95.25c0,11.01-3.76,19.93-8.39,19.93s-8.39-8.92-8.39-19.93,3.76-19.93,8.39-19.93,8.39,8.92,8.39,19.93Z"/><path class="cls-2" d="M160.53,95.25c0,11.01-3.76,19.93-8.39,19.93s-8.39-8.92-8.39-19.93,3.76-19.93,8.39-19.93,8.39,8.92,8.39,19.93Z"/></g></g></g></svg>